<svg xmlns="http://www.w3.org/2000/svg" xmlns:xlink="http://www.w3.org/1999/xlink" width="500" zoomAndPan="magnify" viewBox="0 0 375 374.999991" height="500" preserveAspectRatio="xMidYMid meet" version="1.0"><defs><clipPath id="24ff6b53f2"><path d="M 37.5 37.5 L 337.5 37.5 L 337.5 337.5 L 37.5 337.5 Z M 37.5 37.5 " clip-rule="nonzero"/></clipPath></defs><g clip-path="url(#24ff6b53f2)"><path fill="#ffffff" d="M 337.570312 187.558594 C 337.570312 190.015625 337.507812 192.46875 337.390625 194.917969 C 337.269531 197.371094 337.085938 199.820312 336.847656 202.261719 C 336.605469 204.707031 336.304688 207.140625 335.945312 209.570312 C 335.585938 212 335.164062 214.417969 334.6875 216.824219 C 334.207031 219.230469 333.671875 221.625 333.074219 224.007812 C 332.476562 226.390625 331.824219 228.753906 331.109375 231.105469 C 330.398438 233.453125 329.628906 235.785156 328.800781 238.097656 C 327.972656 240.40625 327.089844 242.695312 326.152344 244.964844 C 325.210938 247.234375 324.214844 249.476562 323.167969 251.695312 C 322.117188 253.914062 321.011719 256.109375 319.855469 258.273438 C 318.699219 260.4375 317.488281 262.574219 316.226562 264.679688 C 314.964844 266.785156 313.652344 268.859375 312.289062 270.898438 C 310.925781 272.941406 309.511719 274.949219 308.046875 276.921875 C 306.585938 278.890625 305.074219 280.828125 303.519531 282.722656 C 301.960938 284.621094 300.359375 286.480469 298.710938 288.300781 C 297.058594 290.117188 295.367188 291.894531 293.632812 293.632812 C 291.894531 295.367188 290.117188 297.058594 288.300781 298.710938 C 286.480469 300.359375 284.621094 301.960938 282.722656 303.519531 C 280.828125 305.074219 278.890625 306.585938 276.917969 308.046875 C 274.949219 309.511719 272.941406 310.925781 270.898438 312.289062 C 268.859375 313.652344 266.785156 314.964844 264.679688 316.226562 C 262.574219 317.488281 260.4375 318.699219 258.273438 319.855469 C 256.109375 321.011719 253.914062 322.117188 251.695312 323.167969 C 249.476562 324.214844 247.234375 325.210938 244.964844 326.152344 C 242.695312 327.089844 240.40625 327.972656 238.097656 328.800781 C 235.785156 329.628906 233.453125 330.398438 231.105469 331.109375 C 228.753906 331.824219 226.390625 332.476562 224.007812 333.074219 C 221.625 333.671875 219.230469 334.207031 216.824219 334.6875 C 214.417969 335.164062 212 335.585938 209.570312 335.945312 C 207.140625 336.304688 204.707031 336.605469 202.261719 336.847656 C 199.820312 337.085938 197.371094 337.269531 194.917969 337.390625 C 192.46875 337.507812 190.015625 337.570312 187.558594 337.570312 C 185.105469 337.570312 182.648438 337.507812 180.199219 337.390625 C 177.746094 337.269531 175.296875 337.085938 172.855469 336.847656 C 170.410156 336.605469 167.976562 336.304688 165.546875 335.945312 C 163.121094 335.585938 160.699219 335.164062 158.292969 334.6875 C 155.886719 334.207031 153.492188 333.671875 151.109375 333.074219 C 148.726562 332.476562 146.363281 331.824219 144.011719 331.109375 C 141.664062 330.398438 139.332031 329.628906 137.023438 328.800781 C 134.710938 327.972656 132.421875 327.089844 130.152344 326.152344 C 127.882812 325.210938 125.640625 324.214844 123.421875 323.167969 C 121.203125 322.117188 119.007812 321.011719 116.84375 319.855469 C 114.679688 318.699219 112.542969 317.488281 110.4375 316.226562 C 108.332031 314.964844 106.257812 313.652344 104.21875 312.289062 C 102.175781 310.925781 100.167969 309.511719 98.199219 308.046875 C 96.226562 306.585938 94.289062 305.074219 92.394531 303.519531 C 90.496094 301.960938 88.636719 300.359375 86.816406 298.710938 C 85 297.058594 83.222656 295.367188 81.484375 293.632812 C 79.75 291.894531 78.058594 290.117188 76.410156 288.300781 C 74.757812 286.480469 73.15625 284.621094 71.597656 282.722656 C 70.042969 280.828125 68.53125 278.890625 67.070312 276.917969 C 65.605469 274.949219 64.195312 272.941406 62.828125 270.898438 C 61.464844 268.859375 60.152344 266.785156 58.890625 264.679688 C 57.628906 262.574219 56.417969 260.4375 55.261719 258.273438 C 54.105469 256.109375 53 253.914062 51.949219 251.695312 C 50.902344 249.476562 49.90625 247.234375 48.96875 244.964844 C 48.027344 242.695312 47.144531 240.40625 46.316406 238.097656 C 45.488281 235.785156 44.71875 233.453125 44.007812 231.105469 C 43.296875 228.753906 42.640625 226.390625 42.042969 224.007812 C 41.449219 221.625 40.910156 219.230469 40.429688 216.824219 C 39.953125 214.417969 39.53125 212 39.171875 209.570312 C 38.8125 207.140625 38.511719 204.707031 38.269531 202.261719 C 38.03125 199.820312 37.847656 197.371094 37.730469 194.917969 C 37.609375 192.46875 37.546875 190.015625 37.546875 187.558594 C 37.546875 185.105469 37.609375 182.648438 37.730469 180.199219 C 37.847656 177.746094 38.03125 175.296875 38.269531 172.855469 C 38.511719 170.410156 38.8125 167.976562 39.171875 165.546875 C 39.53125 163.121094 39.953125 160.699219 40.429688 158.292969 C 40.910156 155.886719 41.449219 153.492188 42.042969 151.109375 C 42.640625 148.726562 43.296875 146.363281 44.007812 144.011719 C 44.71875 141.664062 45.488281 139.332031 46.316406 137.023438 C 47.144531 134.710938 48.027344 132.421875 48.96875 130.152344 C 49.90625 127.882812 50.902344 125.640625 51.949219 123.421875 C 53 121.203125 54.105469 119.007812 55.261719 116.84375 C 56.417969 114.679688 57.628906 112.542969 58.890625 110.4375 C 60.152344 108.332031 61.464844 106.257812 62.828125 104.21875 C 64.195312 102.175781 65.605469 100.167969 67.070312 98.199219 C 68.53125 96.226562 70.042969 94.289062 71.597656 92.394531 C 73.15625 90.496094 74.757812 88.636719 76.410156 86.816406 C 78.058594 85 79.75 83.222656 81.484375 81.484375 C 83.222656 79.75 85 78.058594 86.816406 76.410156 C 88.636719 74.757812 90.496094 73.15625 92.394531 71.597656 C 94.289062 70.042969 96.226562 68.53125 98.199219 67.070312 C 100.167969 65.605469 102.175781 64.195312 104.21875 62.828125 C 106.257812 61.464844 108.332031 60.152344 110.4375 58.890625 C 112.542969 57.628906 114.679688 56.417969 116.84375 55.261719 C 119.007812 54.105469 121.203125 53 123.421875 51.949219 C 125.640625 50.902344 127.882812 49.90625 130.152344 48.96875 C 132.421875 48.027344 134.710938 47.144531 137.023438 46.316406 C 139.332031 45.488281 141.664062 44.71875 144.011719 44.007812 C 146.363281 43.296875 148.726562 42.640625 151.109375 42.042969 C 153.492188 41.449219 155.886719 40.910156 158.292969 40.429688 C 160.699219 39.953125 163.121094 39.53125 165.546875 39.171875 C 167.976562 38.8125 170.410156 38.511719 172.855469 38.269531 C 175.296875 38.03125 177.746094 37.847656 180.199219 37.730469 C 182.648438 37.609375 185.105469 37.546875 187.558594 37.546875 C 190.015625 37.546875 192.46875 37.609375 194.917969 37.730469 C 197.371094 37.847656 199.820312 38.03125 202.261719 38.269531 C 204.707031 38.511719 207.140625 38.8125 209.570312 39.171875 C 212 39.53125 214.417969 39.953125 216.824219 40.429688 C 219.230469 40.910156 221.625 41.449219 224.007812 42.042969 C 226.390625 42.640625 228.753906 43.296875 231.105469 44.007812 C 233.453125 44.71875 235.785156 45.488281 238.097656 46.316406 C 240.40625 47.144531 242.695312 48.027344 244.964844 48.96875 C 247.234375 49.90625 249.476562 50.902344 251.695312 51.949219 C 253.914062 53 256.109375 54.105469 258.273438 55.261719 C 260.4375 56.417969 262.574219 57.628906 264.679688 58.890625 C 266.785156 60.152344 268.859375 61.464844 270.898438 62.828125 C 272.941406 64.195312 274.949219 65.605469 276.921875 67.070312 C 278.890625 68.53125 280.828125 70.042969 282.722656 71.597656 C 284.621094 73.15625 286.480469 74.757812 288.300781 76.410156 C 290.117188 78.058594 291.894531 79.75 293.632812 81.484375 C 295.367188 83.222656 297.058594 85 298.710938 86.816406 C 300.359375 88.636719 301.960938 90.496094 303.519531 92.394531 C 305.074219 94.289062 306.585938 96.226562 308.046875 98.199219 C 309.511719 100.167969 310.925781 102.175781 312.289062 104.21875 C 313.652344 106.257812 314.964844 108.332031 316.226562 110.4375 C 317.488281 112.542969 318.699219 114.679688 319.855469 116.84375 C 321.011719 119.007812 322.117188 121.203125 323.167969 123.421875 C 324.214844 125.640625 325.210938 127.882812 326.152344 130.152344 C 327.089844 132.421875 327.972656 134.710938 328.800781 137.023438 C 329.628906 139.332031 330.398438 141.664062 331.109375 144.011719 C 331.824219 146.363281 332.476562 148.726562 333.074219 151.109375 C 333.671875 153.492188 334.207031 155.886719 334.6875 158.292969 C 335.164062 160.699219 335.585938 163.121094 335.945312 165.546875 C 336.304688 167.976562 336.605469 170.410156 336.847656 172.855469 C 337.085938 175.296875 337.269531 177.746094 337.390625 180.199219 C 337.507812 182.648438 337.570312 185.105469 337.570312 187.558594 Z M 337.570312 187.558594 " fill-opacity="1" fill-rule="nonzero"/></g><path fill="#828282" d="M 280.09375 123.460938 L 280.09375 201.03125 C 277.359375 270.4375 187.542969 293.585938 187.542969 293.585938 C 187.542969 293.585938 97.722656 270.4375 95.027344 201.03125 L 95.027344 123.460938 L 187.542969 87.414062 Z M 280.09375 123.460938 " fill-opacity="1" fill-rule="nonzero"/><path fill="#cacaca" d="M 280.09375 123.460938 L 280.09375 201.03125 C 277.359375 270.4375 187.542969 293.585938 187.542969 293.585938 L 187.542969 87.414062 Z M 280.09375 123.460938 " fill-opacity="1" fill-rule="nonzero"/><path fill="#cacaca" d="M 255.78125 141.074219 L 255.78125 198.265625 C 253.765625 249.433594 187.542969 266.5 187.542969 266.5 C 187.542969 266.5 121.324219 249.433594 119.335938 198.265625 L 119.335938 141.074219 L 187.542969 114.496094 Z M 255.78125 141.074219 " fill-opacity="1" fill-rule="nonzero"/><path fill="#828282" d="M 255.78125 141.074219 L 255.78125 198.265625 C 253.765625 249.433594 187.542969 266.5 187.542969 266.5 L 187.542969 114.496094 Z M 255.78125 141.074219 " fill-opacity="1" fill-rule="nonzero"/></svg>