<svg xmlns="http://www.w3.org/2000/svg" xmlns:xlink="http://www.w3.org/1999/xlink" width="500" zoomAndPan="magnify" viewBox="0 0 375 374.999991" height="500" preserveAspectRatio="xMidYMid meet" version="1.0"><defs><clipPath id="3664a131c3"><path d="M 57.375 112 L 188 112 L 188 337.5 L 57.375 337.5 Z M 57.375 112 " clip-rule="nonzero"/></clipPath><clipPath id="326021e111"><path d="M 58 37.5 L 317.625 37.5 L 317.625 188 L 58 188 Z M 58 37.5 " clip-rule="nonzero"/></clipPath><clipPath id="416614edda"><path d="M 187 112 L 317.625 112 L 317.625 337.5 L 187 337.5 Z M 187 112 " clip-rule="nonzero"/></clipPath></defs><g clip-path="url(#3664a131c3)"><path fill="#ffffff" d="M 187.523438 337.117188 L 187.875 337.3125 L 187.523438 337.523438 L 58.050781 262.753906 L 57.628906 262.507812 L 57.628906 112.515625 L 58.050781 112.269531 L 187.523438 187.035156 L 187.875 186.824219 L 187.929688 186.878906 L 187.523438 187.105469 Z M 187.523438 337.117188 " fill-opacity="1" fill-rule="nonzero"/></g><g clip-path="url(#326021e111)"><path fill="#cacaca" d="M 317.015625 112.269531 L 187.875 186.824219 L 187.523438 187.035156 L 58.050781 112.269531 L 187.523438 37.5 Z M 317.015625 112.269531 " fill-opacity="1" fill-rule="nonzero"/></g><g clip-path="url(#416614edda)"><path fill="#828282" d="M 317.4375 112.515625 L 317.4375 262.507812 L 317.015625 262.753906 L 187.875 337.3125 L 187.523438 337.117188 L 187.523438 187.105469 L 187.929688 186.878906 L 317.085938 112.304688 Z M 317.4375 112.515625 " fill-opacity="1" fill-rule="nonzero"/></g></svg>