<svg xmlns="http://www.w3.org/2000/svg" xmlns:xlink="http://www.w3.org/1999/xlink" width="500" zoomAndPan="magnify" viewBox="0 0 375 374.999991" height="500" preserveAspectRatio="xMidYMid meet" version="1.0"><defs><clipPath id="dd630f76fa"><path d="M 60.5625 37.5 L 313 37.5 L 313 337.5 L 60.5625 337.5 Z M 60.5625 37.5 " clip-rule="nonzero"/></clipPath><clipPath id="6699cca646"><path d="M 60.5625 94 L 175 94 L 175 173 L 60.5625 173 Z M 60.5625 94 " clip-rule="nonzero"/></clipPath></defs><g clip-path="url(#dd630f76fa)"><path fill="#ffffff" d="M 311.851562 189.457031 C 314.535156 192.820312 312.175781 197.820312 307.820312 197.820312 L 287.605469 197.820312 L 287.605469 254.582031 C 287.605469 265.988281 278.375 275.222656 266.964844 275.222656 L 236.003906 275.222656 L 236.003906 337.140625 L 101.84375 337.140625 L 101.84375 238.433594 C 76.507812 215.78125 60.5625 182.863281 60.5625 146.21875 C 60.5625 116.289062 72.695312 89.195312 92.289062 69.585938 C 111.902344 49.992188 138.992188 37.859375 168.921875 37.859375 C 228.789062 37.859375 277.285156 86.355469 277.285156 146.21875 L 311.851562 189.457031 " fill-opacity="1" fill-rule="nonzero"/></g><path fill="#828282" d="M 165.417969 131.96875 L 168.921875 141.058594 L 159.269531 142.550781 C 144.878906 144.867188 130.789062 136.726562 125.585938 123.101562 L 122.058594 114.03125 L 131.714844 112.476562 C 146.125 110.199219 160.195312 118.304688 165.417969 131.96875 " fill-opacity="1" fill-rule="nonzero"/><path fill="#828282" d="M 215.789062 114.03125 L 212.261719 123.101562 C 207.058594 136.726562 192.96875 144.867188 178.578125 142.550781 L 168.921875 141.058594 L 172.429688 131.96875 C 177.652344 118.304688 191.722656 110.199219 206.132812 112.476562 L 215.789062 114.03125 " fill-opacity="1" fill-rule="nonzero"/><g clip-path="url(#6699cca646)"><path fill="#cacaca" d="M 158.605469 172.019531 L 65.722656 172.019531 C 62.878906 172.019531 60.5625 169.703125 60.5625 166.859375 C 60.5625 164.019531 62.878906 161.699219 65.722656 161.699219 L 158.605469 161.699219 C 161.445312 161.699219 163.765625 159.382812 163.765625 156.539062 L 163.765625 94.617188 L 174.082031 94.617188 L 174.082031 156.539062 C 174.082031 165.046875 167.109375 172.019531 158.605469 172.019531 " fill-opacity="1" fill-rule="nonzero"/></g><path fill="#828282" d="M 163.824219 81.777344 L 168.921875 94.617188 L 157.113281 94.617188 C 148.644531 94.617188 141.066406 89.457031 137.902344 81.660156 L 132.804688 68.820312 L 144.613281 68.820312 C 153.082031 68.820312 160.660156 73.980469 163.824219 81.777344 " fill-opacity="1" fill-rule="nonzero"/><path fill="#828282" d="M 199.945312 81.660156 C 196.78125 89.457031 189.203125 94.617188 180.734375 94.617188 L 168.921875 94.617188 L 174.023438 81.777344 C 177.1875 73.980469 184.765625 68.820312 193.234375 68.820312 L 205.042969 68.820312 L 199.945312 81.660156 " fill-opacity="1" fill-rule="nonzero"/></svg>