<svg xmlns="http://www.w3.org/2000/svg" xmlns:xlink="http://www.w3.org/1999/xlink" width="500" zoomAndPan="magnify" viewBox="0 0 375 374.999991" height="500" preserveAspectRatio="xMidYMid meet" version="1.0"><defs><clipPath id="341d84a0f5"><path d="M 37.5 53.1875 L 333.679688 53.1875 L 333.679688 320.167969 L 37.5 320.167969 Z M 37.5 53.1875 " clip-rule="nonzero"/></clipPath><clipPath id="ac19d9dc98"><path d="M 54.75 53.1875 L 316.144531 53.1875 C 320.71875 53.1875 325.109375 55.007812 328.34375 58.242188 C 331.578125 61.476562 333.394531 65.863281 333.394531 70.4375 L 333.394531 302.917969 C 333.394531 307.492188 331.578125 311.878906 328.34375 315.113281 C 325.109375 318.351562 320.71875 320.167969 316.144531 320.167969 L 54.75 320.167969 C 50.175781 320.167969 45.789062 318.351562 42.550781 315.113281 C 39.316406 311.878906 37.5 307.492188 37.5 302.917969 L 37.5 70.4375 C 37.5 65.863281 39.316406 61.476562 42.550781 58.242188 C 45.789062 55.007812 50.175781 53.1875 54.75 53.1875 Z M 54.75 53.1875 " clip-rule="nonzero"/></clipPath><clipPath id="9a626e3215"><path d="M 80.0625 146.203125 L 204.0625 146.203125 L 204.0625 270.207031 L 80.0625 270.207031 Z M 80.0625 146.203125 " clip-rule="nonzero"/></clipPath><clipPath id="e46327fbe4"><path d="M 142.0625 146.203125 C 107.820312 146.203125 80.0625 173.964844 80.0625 208.207031 C 80.0625 242.449219 107.820312 270.207031 142.0625 270.207031 C 176.304688 270.207031 204.0625 242.449219 204.0625 208.207031 C 204.0625 173.964844 176.304688 146.203125 142.0625 146.203125 Z M 142.0625 146.203125 " clip-rule="nonzero"/></clipPath><clipPath id="7bd45d33a0"><path d="M 30.644531 43.78125 L 344.144531 43.78125 L 344.144531 331.03125 L 30.644531 331.03125 Z M 30.644531 43.78125 " clip-rule="nonzero"/></clipPath></defs><g clip-path="url(#341d84a0f5)"><g clip-path="url(#ac19d9dc98)"><path fill="#828282" d="M 37.5 53.1875 L 333.679688 53.1875 L 333.679688 320.167969 L 37.5 320.167969 Z M 37.5 53.1875 " fill-opacity="1" fill-rule="nonzero"/></g></g><g clip-path="url(#9a626e3215)"><g clip-path="url(#e46327fbe4)"><path fill="#cacaca" d="M 80.0625 146.203125 L 204.0625 146.203125 L 204.0625 270.207031 L 80.0625 270.207031 Z M 80.0625 146.203125 " fill-opacity="1" fill-rule="nonzero"/></g></g><g clip-path="url(#7bd45d33a0)"><path fill="#ffffff" d="M 311.613281 43.78125 L 63.375 43.78125 C 45.371094 43.78125 30.710938 58.441406 30.710938 76.445312 L 30.710938 298.554688 C 30.710938 316.558594 45.371094 331.21875 63.375 331.21875 L 311.613281 331.21875 C 329.617188 331.21875 344.277344 316.558594 344.277344 298.554688 L 344.277344 76.445312 C 344.277344 58.441406 329.617188 43.78125 311.613281 43.78125 Z M 115.636719 69.910156 C 119.242188 69.910156 122.167969 72.839844 122.167969 76.445312 C 122.167969 80.050781 119.242188 82.976562 115.636719 82.976562 C 112.027344 82.976562 109.101562 80.050781 109.101562 76.445312 C 109.101562 72.839844 112.027344 69.910156 115.636719 69.910156 Z M 89.503906 69.910156 C 93.109375 69.910156 96.035156 72.839844 96.035156 76.445312 C 96.035156 80.050781 93.109375 82.976562 89.503906 82.976562 C 85.898438 82.976562 82.972656 80.050781 82.972656 76.445312 C 82.972656 72.839844 85.898438 69.910156 89.503906 69.910156 Z M 63.375 69.910156 C 66.980469 69.910156 69.90625 72.839844 69.90625 76.445312 C 69.90625 80.050781 66.980469 82.976562 63.375 82.976562 C 59.765625 82.976562 56.839844 80.050781 56.839844 76.445312 C 56.839844 72.839844 59.765625 69.910156 63.375 69.910156 Z M 331.214844 298.554688 C 331.214844 309.359375 322.421875 318.152344 311.613281 318.152344 L 63.375 318.152344 C 52.570312 318.152344 43.777344 309.359375 43.777344 298.554688 L 43.777344 109.109375 L 331.214844 109.109375 Z M 233.222656 187.5 L 298.550781 187.5 C 302.15625 187.5 305.082031 184.574219 305.082031 180.96875 L 305.082031 154.835938 C 305.082031 151.230469 302.15625 148.304688 298.550781 148.304688 L 233.222656 148.304688 C 229.617188 148.304688 226.691406 151.230469 226.691406 154.835938 L 226.691406 180.96875 C 226.691406 184.574219 229.617188 187.5 233.222656 187.5 Z M 233.222656 265.890625 L 298.550781 265.890625 C 302.15625 265.890625 305.082031 262.964844 305.082031 259.359375 L 305.082031 233.230469 C 305.082031 229.621094 302.15625 226.695312 298.550781 226.695312 L 233.222656 226.695312 C 229.617188 226.695312 226.691406 229.621094 226.691406 233.230469 L 226.691406 259.359375 C 226.691406 262.964844 229.617188 265.890625 233.222656 265.890625 Z M 90.992188 257.949219 C 91.125 258.078125 91.292969 258.171875 91.4375 258.3125 C 94.574219 261.398438 97.984375 264.21875 101.640625 266.6875 C 102.046875 266.964844 102.476562 267.183594 102.894531 267.445312 C 106.382812 269.707031 110.042969 271.707031 113.910156 273.339844 C 114.355469 273.523438 114.8125 273.652344 115.269531 273.835938 C 119.1875 275.390625 123.238281 276.671875 127.457031 277.519531 C 127.707031 277.574219 127.96875 277.585938 128.214844 277.636719 C 132.605469 278.488281 137.140625 278.957031 141.777344 278.957031 C 146.417969 278.957031 150.9375 278.472656 155.339844 277.636719 C 155.589844 277.585938 155.851562 277.574219 156.097656 277.519531 C 160.316406 276.671875 164.367188 275.390625 168.289062 273.835938 C 168.730469 273.652344 169.203125 273.523438 169.648438 273.339844 C 173.515625 271.707031 177.171875 269.707031 180.660156 267.445312 C 181.078125 267.183594 181.511719 266.964844 181.914062 266.6875 C 185.574219 264.21875 188.96875 261.398438 192.121094 258.3125 C 192.25 258.183594 192.417969 258.09375 192.5625 257.949219 C 192.589844 257.921875 192.589844 257.882812 192.617188 257.855469 C 205.617188 244.84375 213.652344 226.890625 213.652344 207.097656 C 213.652344 167.472656 181.417969 135.238281 141.792969 135.238281 C 102.164062 135.238281 69.933594 167.472656 69.933594 207.097656 C 69.933594 226.890625 77.980469 244.84375 90.96875 257.855469 C 90.96875 257.882812 90.96875 257.921875 90.992188 257.949219 Z M 141.765625 148.304688 C 174.179688 148.304688 200.558594 174.683594 200.558594 207.097656 C 200.558594 219.875 196.351562 231.621094 189.414062 241.277344 C 183.378906 230.917969 174.246094 222.933594 163.453125 218.269531 C 170.128906 212.285156 174.429688 203.6875 174.429688 194.03125 C 174.429688 176.027344 159.769531 161.371094 141.765625 161.371094 C 123.761719 161.371094 109.101562 176.027344 109.101562 194.03125 C 109.101562 203.6875 113.386719 212.285156 120.078125 218.269531 C 109.285156 222.933594 100.152344 230.917969 94.117188 241.277344 C 87.164062 231.621094 82.972656 219.875 82.972656 207.097656 C 82.972656 174.683594 109.351562 148.304688 141.765625 148.304688 Z M 141.765625 148.304688 " fill-opacity="1" fill-rule="nonzero"/></g></svg>